HIERARCHY
ROOT Hips
{
  OFFSET -32.5998 29.0326 120.673
  CHANNELS 6 Xposition Yposition Zposition Zrotation Xrotation Yrotation
  JOINT LeftUpLeg
  {
    OFFSET 8.64259 1.95398 -2.38835
    CHANNELS 3 Zrotation Xrotation Yrotation
    JOINT LeftLeg
    {
      OFFSET 43.7702 0 0
      CHANNELS 3 Zrotation Xrotation Yrotation
      JOINT LeftFoot
      {
        OFFSET 40.6238 0 0
        CHANNELS 3 Zrotation Xrotation Yrotation
        JOINT LeftToeBase
        {
          OFFSET 12.7242 0 0
          CHANNELS 3 Zrotation Xrotation Yrotation
          End Site
          {
            OFFSET 0 0 0
          }
        }
      }
    }
  }
  JOINT RightUpLeg
  {
    OFFSET -8.2249 1.95398 -2.59336
    CHANNELS 3 Zrotation Xrotation Yrotation
    JOINT RightLeg
    {
      OFFSET 43.5653 0 0
      CHANNELS 3 Zrotation Xrotation Yrotation
      JOINT RightFoot
      {
        OFFSET 40.6238 0 0
        CHANNELS 3 Zrotation Xrotation Yrotation
        JOINT RightToeBase
        {
          OFFSET 12.7242 0 0
          CHANNELS 3 Zrotation Xrotation Yrotation
          End Site
          {
            OFFSET 0 0 0
          }
        }
      }
    }
  }
  JOINT Spine
  {
    OFFSET 0.165834 0.87714 6.61349
    CHANNELS 3 Zrotation Xrotation Yrotation
    JOINT Spine1
    {
      OFFSET 7.38963 1.71661e-005 0
      CHANNELS 3 Zrotation Xrotation Yrotation
      JOINT Spine2
      {
        OFFSET 11.9445 1.14441e-005 0
        CHANNELS 3 Zrotation Xrotation Yrotation
        JOINT Spine3
        {
          OFFSET 14.7254 4.19617e-005 0
          CHANNELS 3 Zrotation Xrotation Yrotation
          JOINT Spine4
          {
            OFFSET 10.9679 0 0
            CHANNELS 3 Zrotation Xrotation Yrotation
            JOINT RightShoulder
            {
              OFFSET 2.46616 -1.6653 3.69651
              CHANNELS 3 Zrotation Xrotation Yrotation
              JOINT RightArm
              {
                OFFSET 13.0012 0 0
                CHANNELS 3 Zrotation Xrotation Yrotation
                JOINT RightForeArm
                {
                  OFFSET 28.7848 1.62311e-005 0
                  CHANNELS 3 Zrotation Xrotation Yrotation
                  JOINT RightHand
                  {
                    OFFSET 26.5688 1.62095e-005 0
                    CHANNELS 3 Zrotation Xrotation Yrotation
                    End Site
                    {
                      OFFSET 0 0 0
                    }
                  }
                }
              }
            }
            JOINT LeftShoulder
            {
              OFFSET 2.38034 -1.29275 -3.7523
              CHANNELS 3 Zrotation Xrotation Yrotation
              JOINT LeftArm
              {
                OFFSET 16.3182 6.07031e-005 0
                CHANNELS 3 Zrotation Xrotation Yrotation
                JOINT LeftForeArm
                {
                  OFFSET 27.0901 0 0
                  CHANNELS 3 Zrotation Xrotation Yrotation
                  JOINT LeftHand
                  {
                    OFFSET 24.5451 1.51738e-005 0
                    CHANNELS 3 Zrotation Xrotation Yrotation
                    End Site
                    {
                      OFFSET 0 0 0
                    }
                  }
                }
              }
            }
            JOINT Neck
            {
              OFFSET 5.0226 -0.0266342 0
              CHANNELS 3 Zrotation Xrotation Yrotation
              JOINT Head
              {
                OFFSET 6.69364 2.86102e-005 0
                CHANNELS 3 Zrotation Xrotation Yrotation
                End Site
                {
                  OFFSET 0 0 0
                }
              }
            }
          }
        }
      }
    }
  }
}
MOTION
Frames:	10
Frame Time:	0.0416667
6.42458 72.0175 -29.4945 82.3494 46.1004 95.6361 -161.611 58.096 81.1309 -96.4647 10.7851 1.08233 98.1012 23.3281 1.63654 29.9404 -0.427932 2.27431 169.603 41.9505 100.962 -96.9655 2.84365 -2.22911 102.177 -26.8249 -1.18453 40.0876 -5.10968 0.8946 0.331881 10.5475 -89.7114 5.77658 0.783941 0.546178 -5.89424 0.807213 0.511138 -28.4296 0.583554 0.756535 -8.417 0.583557 0.756528 91.1295 -15.0998 -111.284 11.0689 23.0566 -51.9327 -44.5031 -9.61081 -78.8176 -23.1111 -2.02099 4.91142 -90.1959 -26.7577 71.7497 -3.4465 -7.9342 -81.8382 49.8658 28.6337 -51.579 23.5402 2.48274 6.78116 22.0498 -0.126766 -1.91594 -1.8194 0.524491 1.13667 
12.0243 74.919 -35.2787 78.6641 46.9542 97.5796 -164.151 49.8536 83.9512 -90.8273 10.2307 0.64127 104.531 26.5855 -1.68052 32.1639 -0.04303 3.78396 170.384 39.9129 99.9651 -95.7707 -0.941929 -2.34264 89.1932 -19.9287 -7.76534 47.4369 -8.40566 5.29136 0.412528 10.1871 -89.6113 6.49575 0.989213 0.729587 -5.175 1.02037 0.685322 -27.7103 0.724226 0.993145 -7.69769 0.724224 0.993142 91.4975 -14.2787 -110.825 16.4318 30.2434 -50.5638 -44.1593 -7.80846 -86.7808 -23.8568 -2.78395 8.2671 -89.7497 -26.7261 72.617 -2.00317 -9.7234 -84.4523 54.6976 24.3885 -58.451 21.2082 1.90996 5.21697 21.7872 -1.04359 -2.71451 -0.594205 -0.0895009 1.08885 
18.1274 78.0533 -41.4427 77.2444 47.5377 98.328 -166.098 40.0383 86.7549 -83.482 10.3922 0.0534872 105.761 27.9777 -1.64921 36.268 1.29592 5.11752 172.386 40.1747 99.1191 -97.5473 -4.41323 -2.74852 74.4353 -8.01436 -6.40079 39.3306 -5.88368 8.94837 0.299301 10.0057 -89.537 6.8585 0.795916 0.879612 -4.81247 0.833857 0.843721 -27.3462 0.494758 1.07813 -7.33352 0.494771 1.07813 91.1289 -15.3674 -111.129 18.3239 33.227 -45.2952 -39.9719 2.0062 -91.5087 -23.645 -2.94381 9.16416 -89.1532 -28.1354 74.3105 3.05836 -12.3071 -84.622 54.7805 17.3823 -62.5135 21.7534 1.98849 5.35763 22.9221 -1.02849 -3.3615 -0.8186 0.150412 0.153971 
24.6045 81.1651 -47.9253 75.3745 47.9583 100.404 -167.241 31.3855 89.9447 -75.4503 12.5777 -0.422451 101.382 26.9503 0.806596 42.9671 4.34799 4.6153 173.896 41.7192 99.8809 -99.0084 -9.1792 -3.03888 70.9375 -5.7429 -5.94811 20.2185 0.439048 10.6948 0.0929896 9.72748 -89.5212 7.41626 0.393098 0.925045 -4.25494 0.433434 0.90684 -26.7875 0.0969174 1.00041 -6.77487 0.0969304 1.00041 89.8011 -19.9323 -111.772 14.1175 28.703 -31.6058 -40.6506 6.33619 -106.995 -20.2778 -2.59607 9.66784 -88.5784 -27.1115 75.0985 6.31129 -14.904 -84.1315 57.5046 11.7268 -67.885 19.4764 2.0707 6.75808 22.4138 -1.30571 -6.74887 0.249993 1.02744 1.33026 
31.4669 83.783 -54.4257 71.5732 48.759 103.372 -168.068 23.4658 92.1369 -65.6997 14.8047 -0.910843 96.4258 24.9409 2.11218 47.2658 6.01677 5.27121 173.034 44.9765 101.593 -95.3047 -3.93654 -2.54352 77.7472 -9.97062 -6.52122 26.4048 -1.27667 8.9137 -0.245317 9.27067 -89.576 8.33293 -0.302722 0.85653 -3.33826 -0.26474 0.869022 -25.872 -0.546143 0.725958 -5.85932 -0.546142 0.725954 89.5134 -24.2162 -110.233 12.3932 13.9064 -16.3679 -37.5986 15.8337 -112.531 -16.1437 -1.64848 6.76042 -87.6699 -25.2796 76.332 5.32171 -16.5979 -85.72 61.261 7.09714 -73.8893 18.985 2.08404 7.1244 22.7317 -1.19511 -7.63294 -0.385132 1.45552 1.73006 
38.2787 86.2775 -61.7101 70.6987 48.049 106.08 -167.61 13.7219 95.9939 -53.9603 16.1453 -1.24245 88.3931 20.5314 4.11242 53.9905 9.03872 3.92668 172.989 49.1957 103.703 -88.1156 -1.74116 -1.64853 81.0898 -11.7743 -5.26963 26.0048 -0.704686 7.26413 -0.368515 9.00774 -89.9736 8.86079 -0.723256 0.0994477 -2.80995 -0.718197 0.131183 -25.3469 -0.719722 -0.122535 -5.33426 -0.719716 -0.122531 90.692 -23.8554 -107.847 19.282 -4.85615 -1.20287 -39.1156 22.3195 -111.769 -15.613 -1.45162 5.68994 -86.8927 -23.9199 77.5133 3.62838 -17.5005 -87.2957 61.548 2.60844 -77.1978 16.0443 1.47392 5.2902 24.6225 0.0599662 -5.01968 -2.36471 1.81968 0.304289 
45.4673 88.5901 -69.7155 71.9259 46.845 106.895 -166.614 3.13298 99.0459 -40.9222 19.3666 -1.27647 75.31 12.0086 5.80148 65.9636 13.5121 0.424082 173.948 52.6376 103.975 -77.3952 -4.41757 -0.585728 82.7662 -13.4557 -5.59328 25.1765 -0.673695 8.31583 -0.425516 8.9135 -90.4417 9.04158 -1.04597 -0.800813 -2.62917 -1.08019 -0.754009 -25.1643 -0.756966 -1.07814 -5.15161 -0.756946 -1.07814 90.8759 -22.0477 -108.254 33.2654 -13.9942 16.1998 -40.5134 21.8045 -105.04 -17.5305 -1.48565 4.76459 -86.9626 -24.2816 77.4838 2.74584 -16.655 -87.4619 61.8237 0.904431 -78.177 15.9319 1.82087 7.4583 27.5144 2.18887 -1.30498 -5.48407 2.59844 -0.653456 
53.0465 90.3064 -78.1213 73.4474 44.6091 106.859 -167.249 -5.97557 99.9986 -31.9801 21.9255 0.10716 61.3571 1.93627 6.10428 59.8313 12.2622 -6.29911 175.462 55.4652 103.161 -63.8597 -10.173 0.592176 78.395 -10.9007 -5.16378 23.9356 0.0115351 7.52724 -0.596028 8.74859 -90.5599 9.36896 -1.44 -1.00281 -2.30157 -1.48273 -0.938455 -24.8375 -1.07208 -1.38921 -4.82482 -1.07207 -1.3892 87.2113 -24.1493 -115.163 41.9775 -9.48408 29.328 -39.2629 15.1126 -96.9999 -20.5338 -1.65604 4.1736 -86.4261 -24.8099 78.7585 1.34956 -11.5925 -85.5552 62.4931 1.83129 -78.2436 14.614 1.54044 6.53301 29.7636 4.59804 -0.926475 -9.44823 4.80214 -0.775823 
60.6663 90.5198 -86.3394 75.1126 42.7912 106.187 -170.929 -11.4644 97.936 -33.6368 23.3898 3.7552 56.6307 -1.92893 2.77096 15.2067 -4.25387 -2.77437 176.628 56.3863 102.165 -50.397 -15.0823 1.78478 74.1976 -8.5399 -4.03863 20.4938 1.21862 7.86847 -0.598323 8.74643 -90.817 9.36852 -1.56013 -1.50358 -2.30229 -1.62481 -1.43347 -24.8343 -1.03623 -1.90286 -4.82168 -1.03623 -1.90288 86.5356 -24.3915 -116.465 44.6671 -4.99582 31.8871 -42.4553 7.97746 -88.3629 -24.1753 -2.17701 5.19266 -87.8495 -27.0618 76.5399 -0.426091 -3.84125 -82.327 65.3716 4.67434 -76.0746 10.964 0.946518 4.48282 31.8773 6.3672 0.375545 -11.4152 5.94055 -0.479222 
68.73 88.9699 -94.3502 79.7763 41.1783 103.82 -173.441 -16.0586 95.5858 -43.7865 20.29 6.04493 60.1541 0.393506 5.81017 22.6995 -0.828246 -3.59732 176.843 53.5999 103.437 -43.9116 -13.7439 2.5976 70.5913 -5.68404 -2.36738 21.8922 1.22489 6.16318 -0.503538 8.9008 -90.9623 9.05754 -1.43409 -1.80525 -2.61378 -1.51213 -1.7404 -25.1415 -0.825398 -2.15265 -5.12883 -0.825389 -2.15266 85.952 -25.9216 -116.816 43.5385 -0.922706 28.738 -41.8689 -0.34949 -80.1368 -25.3148 -2.16118 4.62123 -89.0622 -32.3714 75.8356 -0.190181 4.63001 -79.0056 64.6823 9.61159 -72.2956 13.2319 1.32797 5.97189 30.6251 7.19034 0.390894 -10.6916 6.67156 0.415971 
